<svg width="654px" height="75px" viewBox="0 0 654 75" version="1.1" xmlns="http://www.w3.org/2000/svg" xmlns:xlink="http://www.w3.org/1999/xlink">
    <!-- Generator: Sketch 40.3 (33839) - http://www.bohemiancoding.com/sketch -->
    <desc>Created with Sketch.</desc>
    <defs></defs>
    <g id="galvanzie-foundation" stroke="none" stroke-width="1" fill="none" fill-rule="evenodd">
        <path d="M66.017,39.25 L55.222,39.25 C49.391,39.25 46.475,41.535 46.475,46.105 C46.475,50.596 49.233,52.724 55.458,52.724 C58.688,52.724 61.525,52.408 64.047,50.123 C65.386,48.863 66.017,46.656 66.017,43.426 L66.017,39.25 L66.017,39.25 Z M66.017,57.137 L66.017,53.433 C62.944,56.506 60.028,57.609 54.828,57.609 C49.47,57.609 46.554,56.664 43.875,54.063 C41.905,52.172 40.959,49.256 40.959,46.184 C40.959,39.328 45.766,34.994 54.434,34.994 L66.017,34.994 L66.017,31.291 C66.017,25.696 63.259,22.78 56.088,22.78 C51.203,22.78 48.682,24.041 46.318,27.272 L42.456,23.727 C45.845,19.235 49.785,17.896 56.167,17.896 C66.647,17.896 71.69,22.466 71.69,30.818 L71.69,57.137 L66.017,57.137 L66.017,57.137 Z" id="Fill-1" fill="#EA882C"></path>
        <path d="M93.898,57.137 C87.122,57.137 84.049,52.724 84.049,46.814 L84.049,1.033 L89.722,1.033 L89.722,46.578 C89.722,50.359 90.983,52.251 94.923,52.251 L97.996,52.251 L97.996,57.137 L93.898,57.137" id="Fill-2" fill="#EA882C"></path>
        <polyline id="Fill-3" fill="#EA882C" points="120.766 57.137 115.723 57.137 101.539 18.368 107.685 18.368 118.244 49.493 128.881 18.368 135.027 18.368 120.766 57.137"></polyline>
        <path d="M164.557,39.25 L153.762,39.25 C147.931,39.25 145.015,41.535 145.015,46.105 C145.015,50.596 147.773,52.724 153.998,52.724 C157.229,52.724 160.065,52.408 162.587,50.123 C163.926,48.863 164.557,46.656 164.557,43.426 L164.557,39.25 L164.557,39.25 Z M164.557,57.137 L164.557,53.433 C161.484,56.506 158.568,57.609 153.368,57.609 C148.01,57.609 145.094,56.664 142.415,54.063 C140.445,52.172 139.5,49.256 139.5,46.184 C139.5,39.328 144.306,34.994 152.974,34.994 L164.557,34.994 L164.557,31.291 C164.557,25.696 161.799,22.78 154.628,22.78 C149.743,22.78 147.222,24.041 144.858,27.272 L140.997,23.727 C144.385,19.235 148.325,17.896 154.707,17.896 C165.187,17.896 170.23,22.466 170.23,30.818 L170.23,57.137 L164.557,57.137 L164.557,57.137 Z" id="Fill-4" fill="#EA882C"></path>
        <path d="M206.519,57.137 L206.519,33.261 C206.519,26.405 202.815,22.938 196.984,22.938 C191.154,22.938 187.372,26.484 187.372,33.261 L187.372,57.137 L181.698,57.137 L181.698,18.368 L187.372,18.368 L187.372,22.623 C190.129,19.472 193.912,17.896 198.245,17.896 C202.421,17.896 205.81,19.156 208.174,21.52 C210.932,24.199 212.192,27.823 212.192,32.315 L212.192,57.137 L206.519,57.137" id="Fill-5" fill="#EA882C"></path>
        <path d="M223.551,57.137 L229.225,57.137 L229.225,18.368 L223.551,18.368 L223.551,57.137 Z M223.236,7.337 L229.619,7.337 L229.619,0.954 L223.236,0.954 L223.236,7.337 Z" id="Fill-6" fill="#EA882C"></path>
        <polyline id="Fill-7" fill="#EA882C" points="239.687 57.137 239.687 52.251 261.277 23.411 240.869 23.411 240.869 18.368 267.817 18.368 267.817 23.175 246.148 52.094 267.817 52.094 267.817 57.137 239.687 57.137"></polyline>
        <path d="M299.49,28.533 C297.836,24.987 294.605,22.702 290.429,22.702 C286.253,22.702 283.022,24.987 281.367,28.533 C280.422,30.582 280.343,31.843 280.186,34.994 L300.751,34.994 C300.515,31.843 300.436,30.582 299.49,28.533 L299.49,28.533 Z M280.186,39.25 C280.186,47.76 284.125,52.644 291.611,52.644 C296.102,52.644 298.703,51.305 301.775,48.232 L305.637,51.621 C301.697,55.561 297.993,57.609 291.453,57.609 C281.131,57.609 274.512,51.463 274.512,37.752 C274.512,25.145 280.579,17.896 290.429,17.896 C300.515,17.896 306.346,25.065 306.346,36.728 L306.346,39.25 L280.186,39.25 L280.186,39.25 Z" id="Fill-8" fill="#EA882C"></path>
        <path d="M323.055,22.702 L323.055,57.137 L317.382,57.137 L317.382,22.702 L312.417,22.702 L312.417,18.368 L317.382,18.368 L317.382,11.276 C317.382,5.524 320.612,0.875 327.231,0.875 L331.329,0.875 L331.329,5.761 L328.256,5.761 C324.631,5.761 323.055,7.889 323.055,11.434 L323.055,18.368 L331.329,18.368 L331.329,22.702 L323.055,22.702" id="Fill-9" fill="#9B947E"></path>
        <path d="M359.315,25.775 C357.424,23.884 354.981,22.938 352.224,22.938 C349.465,22.938 347.102,23.884 345.21,25.775 C342.374,28.611 342.059,33.34 342.059,37.752 C342.059,42.086 342.295,46.814 345.21,49.729 C347.102,51.621 349.465,52.566 352.224,52.566 C354.981,52.566 357.424,51.621 359.315,49.729 C362.151,46.814 362.388,42.086 362.388,37.752 C362.388,33.34 362.151,28.611 359.315,25.775 L359.315,25.775 Z M363.334,53.196 C360.654,55.954 356.951,57.609 352.224,57.609 C347.496,57.609 343.792,55.954 341.113,53.196 C337.173,49.178 336.385,43.74 336.385,37.752 C336.385,31.764 337.173,26.248 341.113,22.308 C343.792,19.55 347.496,17.896 352.224,17.896 C356.951,17.896 360.654,19.55 363.334,22.308 C367.273,26.248 368.062,31.764 368.062,37.752 C368.062,43.74 367.273,49.178 363.334,53.196 L363.334,53.196 Z" id="Fill-10" fill="#9B947E"></path>
        <path d="M402.603,57.137 L402.603,52.803 C399.845,55.954 395.984,57.609 391.65,57.609 C387.474,57.609 384.005,56.348 381.642,53.984 C378.885,51.305 377.702,47.602 377.702,43.11 L377.702,18.368 L383.376,18.368 L383.376,42.244 C383.376,49.1 387.001,52.566 392.832,52.566 C398.662,52.566 402.523,49.02 402.523,42.244 L402.523,18.368 L408.197,18.368 L408.197,57.137 L402.603,57.137" id="Fill-11" fill="#9B947E"></path>
        <path d="M444.73,57.137 L444.73,33.261 C444.73,26.405 441.027,22.938 435.197,22.938 C429.365,22.938 425.583,26.484 425.583,33.261 L425.583,57.137 L419.91,57.137 L419.91,18.368 L425.583,18.368 L425.583,22.623 C428.341,19.472 432.123,17.896 436.457,17.896 C440.634,17.896 444.021,19.156 446.386,21.52 C449.144,24.199 450.404,27.823 450.404,32.315 L450.404,57.137 L444.73,57.137" id="Fill-12" fill="#9B947E"></path>
        <path d="M475.615,22.938 C467.105,22.938 465.843,30.187 465.843,37.752 C465.843,45.316 467.105,52.566 475.615,52.566 C484.046,52.566 485.306,45.316 485.306,37.752 C485.306,30.187 484.046,22.938 475.615,22.938 L475.615,22.938 Z M485.386,57.137 L485.386,52.487 C482.156,56.584 478.767,57.609 474.355,57.609 C470.335,57.609 466.947,56.27 464.898,54.221 C461.039,50.281 460.171,43.977 460.171,37.752 C460.171,31.527 461.039,25.145 464.898,21.283 C466.947,19.235 470.335,17.896 474.355,17.896 C478.689,17.896 482.076,18.841 485.306,22.859 L485.306,1.033 L490.98,1.033 L490.98,57.137 L485.386,57.137 L485.386,57.137 Z" id="Fill-13" fill="#9B947E"></path>
        <path d="M524.962,39.25 L514.166,39.25 C508.335,39.25 505.419,41.535 505.419,46.105 C505.419,50.596 508.177,52.724 514.404,52.724 C517.634,52.724 520.47,52.408 522.992,50.123 C524.332,48.863 524.962,46.656 524.962,43.426 L524.962,39.25 L524.962,39.25 Z M524.962,57.137 L524.962,53.433 C521.888,56.506 518.972,57.609 513.773,57.609 C508.414,57.609 505.5,56.664 502.82,54.063 C500.849,52.172 499.904,49.256 499.904,46.184 C499.904,39.328 504.71,34.994 513.378,34.994 L524.962,34.994 L524.962,31.291 C524.962,25.696 522.205,22.78 515.033,22.78 C510.148,22.78 507.626,24.041 505.263,27.272 L501.402,23.727 C504.791,19.235 508.73,17.896 515.113,17.896 C525.591,17.896 530.634,22.466 530.634,30.818 L530.634,57.137 L524.962,57.137 L524.962,57.137 Z" id="Fill-14" fill="#9B947E"></path>
        <path d="M552.607,57.137 C545.988,57.137 542.679,52.487 542.679,46.734 L542.679,22.702 L537.792,22.702 L537.792,18.368 L542.679,18.368 L542.679,6.47 L548.353,6.47 L548.353,18.368 L556.626,18.368 L556.626,22.702 L548.353,22.702 L548.353,46.578 C548.353,50.123 550.007,52.251 553.632,52.251 L556.626,52.251 L556.626,57.137 L552.607,57.137" id="Fill-15" fill="#9B947E"></path>
        <path d="M565.376,57.137 L571.05,57.137 L571.05,18.368 L565.376,18.368 L565.376,57.137 Z M565.062,7.337 L571.445,7.337 L571.445,0.954 L565.062,0.954 L565.062,7.337 Z" id="Fill-16" fill="#9B947E"></path>
        <path d="M603.796,25.775 C601.906,23.884 599.462,22.938 596.705,22.938 C593.947,22.938 591.583,23.884 589.693,25.775 C586.855,28.611 586.541,33.34 586.541,37.752 C586.541,42.086 586.777,46.814 589.693,49.729 C591.583,51.621 593.947,52.566 596.705,52.566 C599.462,52.566 601.906,51.621 603.796,49.729 C606.634,46.814 606.871,42.086 606.871,37.752 C606.871,33.34 606.634,28.611 603.796,25.775 L603.796,25.775 Z M607.816,53.196 C605.136,55.954 601.433,57.609 596.705,57.609 C591.978,57.609 588.275,55.954 585.595,53.196 C581.656,49.178 580.867,43.74 580.867,37.752 C580.867,31.764 581.656,26.248 585.595,22.308 C588.275,19.55 591.978,17.896 596.705,17.896 C601.433,17.896 605.136,19.55 607.816,22.308 C611.755,26.248 612.542,31.764 612.542,37.752 C612.542,43.74 611.755,49.178 607.816,53.196 L607.816,53.196 Z" id="Fill-17" fill="#9B947E"></path>
        <path d="M647.421,57.137 L647.421,33.261 C647.421,26.405 643.718,22.938 637.888,22.938 C632.056,22.938 628.275,26.484 628.275,33.261 L628.275,57.137 L622.601,57.137 L622.601,18.368 L628.275,18.368 L628.275,22.623 C631.033,19.472 634.814,17.896 639.148,17.896 C643.326,17.896 646.712,19.156 649.078,21.52 C651.835,24.199 653.095,27.823 653.095,32.315 L653.095,57.137 L647.421,57.137" id="Fill-18" fill="#9B947E"></path>
        <path d="M15.267,49.414 C19.34,49.414 21.997,47.709 22.44,39.768 L8.021,39.768 C8.489,47.684 11.266,49.414 15.267,49.414" id="Fill-19" fill="#9B947E"></path>
        <path d="M13.542,35.994 C14.723,34.814 14.723,32.906 13.542,31.723 C12.364,30.55 10.455,30.55 9.275,31.723 C8.212,32.791 8.109,34.449 8.965,35.629 L8.31,36.955 L9.637,36.303 C10.817,37.16 12.479,37.059 13.542,35.994" id="Fill-20" fill="#9B947E"></path>
        <path d="M6.345,27.598 C5.516,26.771 4.174,26.771 3.346,27.598 C2.519,28.427 2.519,29.771 3.346,30.602 C4.093,31.345 5.258,31.415 6.085,30.815 L7.017,31.28 L6.558,30.341 C7.164,29.511 7.092,28.345 6.345,27.598" id="Fill-21" fill="#9B947E"></path>
        <path d="M10.2,23.054 C10.726,22.525 10.726,21.666 10.2,21.134 C9.667,20.61 8.812,20.61 8.285,21.134 C7.807,21.614 7.762,22.358 8.142,22.888 L7.848,23.48 L8.446,23.192 C8.977,23.577 9.719,23.532 10.2,23.054" id="Fill-22" fill="#9B947E"></path>
        <path d="M25.026,18.062 L25.026,22.659 C24.082,21.435 23.107,20.519 22.097,19.797 L18.712,23.183 C24.077,24.956 24.946,31.098 24.946,37.254 C24.946,44.547 23.753,51.846 15.267,51.846 C6.784,51.846 5.513,44.547 5.513,37.254 C5.513,36.959 5.519,36.668 5.522,36.369 L0,41.896 C0.425,46.461 1.645,50.588 4.559,53.508 C6.624,55.572 10.033,57 13.998,57 C18.202,57 21.771,55.971 24.946,51.926 L24.946,58.031 C24.946,64.693 21.771,70.004 14.238,70.004 C9.716,70.004 7.738,68.66 4.879,66.121 L1.156,69.766 C5.275,73.492 8.526,75 14.396,75 C24.627,75 30.652,67.941 30.652,58.269 L30.652,18.062 L25.026,18.062" id="Fill-23" fill="#EA882C"></path>
    </g>
</svg>
